<svg width="125" height="32" viewBox="0 0 125 32" fill="none" xmlns="http://www.w3.org/2000/svg">
<path d="M119 0H31V32H119C121.761 32 124 29.7614 124 27V5C124 2.23858 121.761 0 119 0Z" fill="#0F1418"/>
<path d="M1 5C1 2.23858 3.23858 0 6 0H33V32H6C3.23858 32 1 29.7614 1 27V5Z" fill="#2E2E35"/>
<path d="M1 5C1 2.23858 3.23858 0 6 0H33V32H6C3.23858 32 1 29.7614 1 27V5Z" fill="url(#paint0_linear)"/>
<path d="M1 4.2666H20.9111V6.1629H1V4.2666Z" fill="#8B8B8B"/>
<path d="M1 4.74072H20.9111V5.68887H1V4.74072Z" fill="white"/>
<circle cx="20.7926" cy="5.21481" r="1.54074" fill="url(#paint1_radial)"/>
<path d="M1 15.0518H21.1481V16.9481H1V15.0518Z" fill="#8B8B8B"/>
<path d="M1 15.5259H21.1481V16.474H1V15.5259Z" fill="white"/>
<path d="M4.31852 10.6667H17.9481V11.6149H4.31852V10.6667Z" fill="#8B8B8B"/>
<path d="M3.01482 9.71851H17.9481V10.6667H3.01482V9.71851Z" fill="#8B8B8B"/>
<path d="M3.37037 10.1926H17.9481V11.1408H3.37037V10.1926Z" fill="white"/>
<path d="M3.84444 15.2888L3.84444 11.1407H4.79259V15.2888H3.84444Z" fill="#8B8B8B"/>
<path d="M2.89629 15.2888L2.89629 9.71845H3.84444L3.84444 15.2888H2.89629Z" fill="#8B8B8B"/>
<path d="M3.37037 15.5259L3.37037 10.1925H4.31852V15.5259H3.37037Z" fill="white"/>
<path d="M22.3333 16C22.3333 16.8509 21.6435 17.5407 20.7926 17.5407C19.9417 17.5407 19.2518 16.8509 19.2518 16C19.2518 15.149 19.9417 14.4592 20.7926 14.4592C21.6435 14.4592 22.3333 15.149 22.3333 16Z" fill="url(#paint2_radial)"/>
<path d="M26.9556 32V20.1481H28.8518V30.1037C28.8518 31.151 28.0028 32 26.9556 32Z" fill="#8B8B8B"/>
<path d="M27.4296 32V20.1481H28.3778V32H27.4296Z" fill="white"/>
<path d="M29.4444 20.2666C29.4444 21.1175 28.7546 21.8073 27.9037 21.8073C27.0528 21.8073 26.363 21.1175 26.363 20.2666C26.363 19.4156 27.0528 18.7258 27.9037 18.7258C28.7546 18.7258 29.4444 19.4156 29.4444 20.2666Z" fill="url(#paint3_radial)"/>
<path d="M1 25.7185H10.4815V27.6148H1V25.7185Z" fill="#FBA828"/>
<path d="M1 26.1926H10.4815V27.1408H1V26.1926Z" fill="white"/>
<path d="M12.8519 26.6667C12.8519 27.5176 12.162 28.2075 11.3111 28.2075C10.4602 28.2075 9.77037 27.5176 9.77037 26.6667C9.77037 25.8158 10.4602 25.126 11.3111 25.126C12.162 25.126 12.8519 25.8158 12.8519 26.6667Z" fill="url(#paint4_radial)"/>
<path d="M1 20.3853H9.2963V22.2816H1V20.3853Z" fill="#FBA828"/>
<path d="M1 20.8594H9.2963V21.8075H1V20.8594Z" fill="white"/>
<path d="M11.3111 21.3332C11.3111 22.1841 10.6213 22.874 9.77037 22.874C8.91944 22.874 8.22963 22.1841 8.22963 21.3332C8.22963 20.4823 8.91944 19.7925 9.77037 19.7925C10.6213 19.7925 11.3111 20.4823 11.3111 21.3332Z" fill="url(#paint5_radial)"/>
<path d="M21.5037 32V23.7037H23.4V32H21.5037Z" fill="#8B8B8B"/>
<path d="M21.9778 32V23.7037H22.9259V32H21.9778Z" fill="white"/>
<path d="M23.9926 23.5852C23.9926 24.4361 23.3028 25.1259 22.4519 25.1259C21.6009 25.1259 20.9111 24.4361 20.9111 23.5852C20.9111 22.7342 21.6009 22.0444 22.4519 22.0444C23.3028 22.0444 23.9926 22.7342 23.9926 23.5852Z" fill="url(#paint6_radial)"/>
<path d="M16.0518 32V22.4H17.9481V32H16.0518Z" fill="#8B8B8B"/>
<path d="M16.5259 32V22.4H17.4741V32H16.5259Z" fill="white"/>
<path d="M18.6593 21.3332C18.6593 22.1841 17.9694 22.874 17.1185 22.874C16.2676 22.874 15.5778 22.1841 15.5778 21.3332C15.5778 20.4823 16.2676 19.7925 17.1185 19.7925C17.9694 19.7925 18.6593 20.4823 18.6593 21.3332Z" fill="url(#paint7_radial)"/>
<circle cx="17.7111" cy="10.6667" r="1.54074" fill="url(#paint8_radial)"/>
<path d="M25.8889 12.6814H33V14.5777H25.8889V12.6814Z" fill="#FBA828"/>
<path d="M25.8889 13.1555H33V14.1037H25.8889V13.1555Z" fill="white"/>
<path d="M27.3111 13.6296C27.3111 14.4805 26.6213 15.1703 25.7704 15.1703C24.9194 15.1703 24.2296 14.4805 24.2296 13.6296C24.2296 12.7787 24.9194 12.0889 25.7704 12.0889C26.6213 12.0889 27.3111 12.7787 27.3111 13.6296Z" fill="url(#paint9_radial)"/>
<path d="M25.8889 7.34814H33V9.24444H25.8889V7.34814Z" fill="#FBA828"/>
<path d="M25.8889 7.82227H33V8.77041H25.8889V7.82227Z" fill="white"/>
<path d="M26.4815 8.29636C26.4815 9.14728 25.7917 9.8371 24.9407 9.8371C24.0898 9.8371 23.4 9.14728 23.4 8.29636C23.4 7.44543 24.0898 6.75562 24.9407 6.75562C25.7917 6.75562 26.4815 7.44543 26.4815 8.29636Z" fill="url(#paint10_radial)"/>
<path d="M56.9296 22H54.5931V15.7158C54.5931 15.0371 54.6224 14.2876 54.681 13.4673H54.6224C54.5004 14.1118 54.3905 14.5757 54.2929 14.8589L51.8319 22H49.8983L47.3934 14.9321C47.3251 14.7417 47.2152 14.2534 47.0638 13.4673H46.9979C47.0614 14.5024 47.0931 15.4106 47.0931 16.1919V22H44.9618V11.4971H48.4262L50.5721 17.7227C50.743 18.2207 50.8676 18.7212 50.9457 19.2241H50.9896C51.1215 18.6431 51.2606 18.1377 51.4071 17.708L53.5531 11.4971H56.9296V22ZM66.3967 22H64.0896V20.8574H64.0529C63.4816 21.7412 62.7175 22.1831 61.7604 22.1831C60.0222 22.1831 59.153 21.1309 59.153 19.0264V14.5H61.4602V18.8213C61.4602 19.8809 61.8801 20.4106 62.7199 20.4106C63.135 20.4106 63.467 20.2666 63.716 19.9785C63.965 19.6855 64.0896 19.29 64.0896 18.792V14.5H66.3967V22ZM70.8467 22H68.5322V10.8965H70.8467V22ZM77.5086 21.9121C77.1668 22.0928 76.6517 22.1831 75.9632 22.1831C74.3324 22.1831 73.5169 21.3359 73.5169 19.6416V16.2065H72.3011V14.5H73.5169V12.8813L75.8241 12.2222V14.5H77.5086V16.2065H75.8241V19.2388C75.8241 20.02 76.1341 20.4106 76.7542 20.4106C76.9984 20.4106 77.2498 20.3398 77.5086 20.1982V21.9121ZM80.1715 13.3135C79.7809 13.3135 79.4611 13.1987 79.2121 12.9692C78.963 12.7349 78.8385 12.4492 78.8385 12.1123C78.8385 11.7656 78.963 11.4824 79.2121 11.2627C79.4611 11.043 79.7809 10.9331 80.1715 10.9331C80.5671 10.9331 80.8869 11.043 81.131 11.2627C81.38 11.4824 81.5046 11.7656 81.5046 12.1123C81.5046 12.4639 81.38 12.752 81.131 12.9766C80.8869 13.2012 80.5671 13.3135 80.1715 13.3135ZM81.3141 22H78.9997V14.5H81.3141V22ZM83.186 21.5972V19.2534C83.6108 19.6099 84.0722 19.8784 84.5703 20.0591C85.0683 20.2349 85.5713 20.3228 86.0791 20.3228C86.3769 20.3228 86.6357 20.2959 86.8554 20.2422C87.0801 20.1885 87.2656 20.1152 87.4121 20.0225C87.5635 19.9248 87.6758 19.8125 87.749 19.6855C87.8222 19.5537 87.8589 19.4121 87.8589 19.2607C87.8589 19.0557 87.8003 18.8726 87.6831 18.7114C87.5659 18.5503 87.4048 18.4014 87.1997 18.2646C86.9995 18.1279 86.7602 17.9961 86.4819 17.8691C86.2036 17.7422 85.9033 17.6128 85.581 17.481C84.7607 17.1392 84.1479 16.7217 83.7427 16.2285C83.3423 15.7354 83.1421 15.1396 83.1421 14.4414C83.1421 13.8945 83.2519 13.4258 83.4717 13.0352C83.6914 12.6396 83.9892 12.3149 84.3652 12.061C84.7461 11.8071 85.1855 11.6216 85.6836 11.5044C86.1816 11.3823 86.709 11.3213 87.2656 11.3213C87.8125 11.3213 88.2959 11.3555 88.7158 11.4238C89.1406 11.4873 89.5312 11.5874 89.8877 11.7241V13.9141C89.7119 13.792 89.519 13.6846 89.3091 13.5918C89.104 13.499 88.8916 13.4233 88.6719 13.3647C88.4521 13.3013 88.2324 13.2549 88.0127 13.2256C87.7978 13.1963 87.5928 13.1816 87.3974 13.1816C87.1289 13.1816 86.8847 13.2085 86.665 13.2622C86.4453 13.311 86.2597 13.3818 86.1084 13.4746C85.957 13.5674 85.8398 13.6797 85.7568 13.8115C85.6738 13.9385 85.6323 14.0825 85.6323 14.2437C85.6323 14.4194 85.6787 14.5781 85.7715 14.7197C85.8642 14.8564 85.9961 14.9883 86.167 15.1152C86.3379 15.2373 86.5454 15.3594 86.7895 15.4814C87.0337 15.5986 87.3096 15.7207 87.6172 15.8477C88.0371 16.0234 88.4131 16.2114 88.7451 16.4116C89.082 16.6069 89.3701 16.8291 89.6094 17.0781C89.8486 17.3271 90.0317 17.6128 90.1587 17.9351C90.2856 18.2524 90.3491 18.6235 90.3491 19.0483C90.3491 19.6343 90.2368 20.1274 90.0122 20.5278C89.7925 20.9233 89.4922 21.2456 89.1113 21.4946C88.7304 21.7388 88.2861 21.9146 87.7783 22.022C87.2754 22.1294 86.7431 22.1831 86.1816 22.1831C85.6054 22.1831 85.0561 22.1343 84.5337 22.0366C84.0161 21.939 83.5669 21.7925 83.186 21.5972ZM93.2024 13.3135C92.8118 13.3135 92.492 13.1987 92.243 12.9692C91.9939 12.7349 91.8694 12.4492 91.8694 12.1123C91.8694 11.7656 91.9939 11.4824 92.243 11.2627C92.492 11.043 92.8118 10.9331 93.2024 10.9331C93.5979 10.9331 93.9178 11.043 94.1619 11.2627C94.4109 11.4824 94.5354 11.7656 94.5354 12.1123C94.5354 12.4639 94.4109 12.752 94.1619 12.9766C93.9178 13.2012 93.5979 13.3135 93.2024 13.3135ZM94.345 22H92.0306V14.5H94.345V22ZM108.382 22H106.075V17.7227C106.075 16.6338 105.675 16.0894 104.874 16.0894C104.493 16.0894 104.183 16.2529 103.944 16.5801C103.705 16.9072 103.585 17.3149 103.585 17.8032V22H101.271V17.6787C101.271 16.6191 100.878 16.0894 100.091 16.0894C99.6959 16.0894 99.3785 16.2456 99.1393 16.5581C98.9049 16.8706 98.7877 17.2954 98.7877 17.8325V22H96.4733V14.5H98.7877V15.6719H98.817C99.0563 15.2715 99.3907 14.9468 99.8204 14.6978C100.255 14.4438 100.729 14.3169 101.241 14.3169C102.301 14.3169 103.026 14.7832 103.417 15.7158C103.988 14.7832 104.828 14.3169 105.936 14.3169C107.567 14.3169 108.382 15.3228 108.382 17.3345V22Z" fill="white"/>
<path d="M119 0H6C3.23858 0 1 2.23858 1 5V27C1 29.7614 3.23858 32 6 32H119C121.761 32 124 29.7614 124 27V5C124 2.23858 121.761 0 119 0Z" fill="url(#paint11_linear)"/>
<defs>
<linearGradient id="paint0_linear" x1="17" y1="0" x2="17" y2="32" gradientUnits="userSpaceOnUse">
<stop stop-color="#312A6D"/>
<stop offset="1" stop-color="#6B6297"/>
</linearGradient>
<radialGradient id="paint1_radial" cx="0" cy="0" r="1" gradientUnits="userSpaceOnUse" gradientTransform="translate(20.7926 5.21481) rotate(90) scale(1.54074)">
<stop stop-color="white"/>
<stop offset="1" stop-color="#BEBDBD"/>
</radialGradient>
<radialGradient id="paint2_radial" cx="0" cy="0" r="1" gradientUnits="userSpaceOnUse" gradientTransform="translate(20.7926 16) rotate(90) scale(1.54074)">
<stop stop-color="white"/>
<stop offset="1" stop-color="#BEBDBD"/>
</radialGradient>
<radialGradient id="paint3_radial" cx="0" cy="0" r="1" gradientUnits="userSpaceOnUse" gradientTransform="translate(27.9037 20.2666) rotate(90) scale(1.54074)">
<stop stop-color="white"/>
<stop offset="1" stop-color="#BEBDBD"/>
</radialGradient>
<radialGradient id="paint4_radial" cx="0" cy="0" r="1" gradientUnits="userSpaceOnUse" gradientTransform="translate(11.3111 26.6667) rotate(90) scale(1.54074)">
<stop stop-color="#F2ECE2"/>
<stop offset="0.932292" stop-color="#FBA828"/>
</radialGradient>
<radialGradient id="paint5_radial" cx="0" cy="0" r="1" gradientUnits="userSpaceOnUse" gradientTransform="translate(9.77037 21.3332) rotate(90) scale(1.54074)">
<stop stop-color="#F2ECE2"/>
<stop offset="0.932292" stop-color="#FBA828"/>
</radialGradient>
<radialGradient id="paint6_radial" cx="0" cy="0" r="1" gradientUnits="userSpaceOnUse" gradientTransform="translate(22.4519 23.5852) rotate(90) scale(1.54074)">
<stop stop-color="white"/>
<stop offset="1" stop-color="#BEBDBD"/>
</radialGradient>
<radialGradient id="paint7_radial" cx="0" cy="0" r="1" gradientUnits="userSpaceOnUse" gradientTransform="translate(17.1185 21.3332) rotate(90) scale(1.54074)">
<stop stop-color="white"/>
<stop offset="1" stop-color="#BEBDBD"/>
</radialGradient>
<radialGradient id="paint8_radial" cx="0" cy="0" r="1" gradientUnits="userSpaceOnUse" gradientTransform="translate(17.7111 10.6667) rotate(90) scale(1.54074)">
<stop stop-color="white"/>
<stop offset="1" stop-color="#BEBDBD"/>
</radialGradient>
<radialGradient id="paint9_radial" cx="0" cy="0" r="1" gradientUnits="userSpaceOnUse" gradientTransform="translate(25.7704 13.6296) rotate(90) scale(1.54074)">
<stop stop-color="#F2ECE2"/>
<stop offset="0.932292" stop-color="#FBA828"/>
</radialGradient>
<radialGradient id="paint10_radial" cx="0" cy="0" r="1" gradientUnits="userSpaceOnUse" gradientTransform="translate(24.9407 8.29636) rotate(90) scale(1.54074)">
<stop stop-color="#F2ECE2"/>
<stop offset="0.932292" stop-color="#FBA828"/>
</radialGradient>
<linearGradient id="paint11_linear" x1="1" y1="0" x2="1" y2="32" gradientUnits="userSpaceOnUse">
<stop stop-color="#BBBBBB" stop-opacity="0.1"/>
<stop offset="1" stop-opacity="0.1"/>
</linearGradient>
</defs>
</svg>
