<svg width="125" height="32" viewBox="0 0 125 32" fill="none" xmlns="http://www.w3.org/2000/svg">
<path d="M119 0H31V32H119C121.761 32 124 29.7614 124 27V5C124 2.23858 121.761 0 119 0Z" fill="#0F1418"/>
<path d="M0 5C0 2.23858 2.23858 0 5 0H31V32H5C2.23858 32 0 29.7614 0 27V5Z" fill="#2E2E35"/>
<path d="M18.5177 9.07002C19.8208 6.37977 19.8208 6.37976 22.6328 7.51249L22.2213 8.07874L21.2611 9.42387L22.4956 9.91959L22.2213 10.2734L18.1748 15.229L17.0774 14.6626L16.1859 15.583L15.5 15.0874L13.9912 16.5745L10.4248 14.2382L10.6305 12.6807L10.6991 12.1849L11.3164 12.6807L11.7965 12.1849L12.2766 11.6895L14.1969 12.8219L17.489 8.36204L18.5177 9.07002Z" fill="#8257E5"/>
<path d="M15.2943 18.0612L11.5907 15.583L12.0022 16.8575L11.6593 18.132L12.7567 19.1231L13.854 18.2025L15.2943 18.0612Z" fill="#8257E5"/>
<path d="M12.4823 19.6187L11.3164 18.5568L10.4248 19.052C9.92184 20.3971 8.91594 23.1157 8.91594 23.229C8.91594 23.3423 9.19028 23.2292 9.39603 23.0876L8.2301 25.1407L12.5509 20.8221L12.4823 19.6187Z" fill="#8257E5"/>
<path d="M22.6328 7.51249L23.0372 7.80643C23.1278 7.68185 23.1558 7.52248 23.1133 7.37446C23.0708 7.22643 22.9624 7.10626 22.8196 7.04871L22.6328 7.51249ZM18.5177 9.07002L18.2343 9.48191C18.3544 9.56456 18.5046 9.59068 18.6455 9.55341C18.7865 9.51614 18.9041 9.4192 18.9677 9.28798L18.5177 9.07002ZM17.489 8.36204L17.7724 7.95015C17.5502 7.79725 17.2468 7.84811 17.0867 8.0651L17.489 8.36204ZM14.1969 12.8219L13.9429 13.2526C14.1636 13.3828 14.447 13.325 14.5992 13.1189L14.1969 12.8219ZM12.2766 11.6895L12.5305 11.2588C12.3316 11.1415 12.0782 11.1757 11.9175 11.3415L12.2766 11.6895ZM11.7965 12.1849L11.4374 11.837L11.4373 11.8371L11.7965 12.1849ZM10.6305 12.6807L10.1353 12.6121L10.1349 12.6152L10.6305 12.6807ZM10.4248 14.2382L9.9291 14.1727C9.90394 14.3631 9.99011 14.5512 10.1508 14.6564L10.4248 14.2382ZM13.9912 16.5745L13.7172 16.9927C13.9141 17.1217 14.1744 17.0959 14.3421 16.9306L13.9912 16.5745ZM15.5 15.0874L15.7929 14.6821C15.595 14.5392 15.3229 14.56 15.149 14.7313L15.5 15.0874ZM16.1859 15.583L15.893 15.9883C16.0944 16.1338 16.3721 16.1093 16.545 15.9309L16.1859 15.583ZM17.0774 14.6626L17.3068 14.2183C17.1108 14.1172 16.8718 14.1564 16.7183 14.3147L17.0774 14.6626ZM18.1748 15.229L17.9455 15.6733C18.1554 15.7817 18.4126 15.7283 18.5621 15.5453L18.1748 15.229ZM22.2213 10.2734L22.6087 10.5898L22.6164 10.5798L22.2213 10.2734ZM11.5907 15.583L11.8688 15.1674C11.6918 15.0491 11.4593 15.0557 11.2894 15.184C11.1195 15.3122 11.0495 15.534 11.1149 15.7366L11.5907 15.583ZM15.2943 18.0612L15.3431 18.5588C15.5532 18.5382 15.7278 18.3877 15.7792 18.1829C15.8306 17.9781 15.7478 17.7631 15.5723 17.6456L15.2943 18.0612ZM13.854 18.2025L13.8052 17.7048C13.7049 17.7147 13.6099 17.7546 13.5326 17.8194L13.854 18.2025ZM12.7567 19.1231L12.4215 19.4942C12.6067 19.6614 12.8869 19.6666 13.078 19.5062L12.7567 19.1231ZM11.6593 18.132L11.1765 18.0021C11.1277 18.1835 11.1847 18.3771 11.3242 18.503L11.6593 18.132ZM12.0022 16.8575L12.4851 16.9874C12.5101 16.8942 12.5077 16.7957 12.478 16.7039L12.0022 16.8575ZM11.3164 18.5568L11.6531 18.1871C11.4944 18.0426 11.2612 18.0154 11.0736 18.1197L11.3164 18.5568ZM12.4823 19.6187L12.9815 19.5903C12.9741 19.4596 12.9157 19.3371 12.819 19.2491L12.4823 19.6187ZM12.5509 20.8221L12.9044 21.1757C13.0052 21.075 13.0582 20.9359 13.0501 20.7936L12.5509 20.8221ZM8.2301 25.1407L7.79532 24.8938C7.67176 25.1113 7.72806 25.3868 7.92709 25.5384C8.12612 25.69 8.40659 25.6712 8.58357 25.4943L8.2301 25.1407ZM9.39603 23.0876L9.83082 23.3345C9.94588 23.1319 9.90573 22.8766 9.73401 22.7191C9.56229 22.5616 9.30454 22.5436 9.11258 22.6757L9.39603 23.0876ZM10.4248 19.052L10.182 18.6149C10.0781 18.6727 9.9981 18.7655 9.95646 18.8769L10.4248 19.052ZM11.3164 12.6807L11.0033 13.0705C11.2046 13.2322 11.4959 13.214 11.6756 13.0285L11.3164 12.6807ZM10.6991 12.1849L11.0122 11.7951C10.8719 11.6824 10.6817 11.6538 10.5144 11.7203C10.3471 11.7868 10.2285 11.9381 10.2038 12.1164L10.6991 12.1849ZM21.2611 9.42387L20.8541 9.13337C20.765 9.2582 20.7381 9.41701 20.7812 9.56421C20.8242 9.71141 20.9324 9.83071 21.0748 9.88786L21.2611 9.42387ZM22.2213 8.07874L21.8168 7.78479L21.8143 7.78825L22.2213 8.07874ZM22.4956 9.91959L22.8907 10.226C22.9868 10.102 23.0192 9.94015 22.9782 9.78877C22.9371 9.63739 22.8274 9.51404 22.6819 9.4556L22.4956 9.91959ZM22.8196 7.04871C22.1275 6.76994 21.5706 6.54481 21.1224 6.41844C20.6757 6.29245 20.2423 6.23488 19.8324 6.39001C19.4209 6.54576 19.1375 6.8762 18.892 7.2659C18.6464 7.65572 18.3882 8.1904 18.0677 8.85205L18.9677 9.28798C19.2988 8.60451 19.5293 8.13034 19.7381 7.79893C19.9469 7.4674 20.0835 7.36421 20.1864 7.32526C20.2909 7.28571 20.4662 7.27238 20.851 7.3809C21.2345 7.48904 21.732 7.68869 22.4459 7.97628L22.8196 7.04871ZM18.8012 8.65813L17.7724 7.95015L17.2055 8.77393L18.2343 9.48191L18.8012 8.65813ZM17.0867 8.0651L13.7946 12.525L14.5992 13.1189L17.8912 8.65898L17.0867 8.0651ZM14.4509 12.3912L12.5305 11.2588L12.0226 12.1202L13.9429 13.2526L14.4509 12.3912ZM11.9175 11.3415L11.4374 11.837L12.1555 12.5329L12.6356 12.0375L11.9175 11.3415ZM10.1349 12.6152L9.9291 14.1727L10.9205 14.3037L11.1262 12.7461L10.1349 12.6152ZM10.1508 14.6564L13.7172 16.9927L14.2652 16.1562L10.6988 13.8199L10.1508 14.6564ZM14.3421 16.9306L15.851 15.4435L15.149 14.7313L13.6402 16.2183L14.3421 16.9306ZM15.2072 15.4927L15.893 15.9883L16.4787 15.1777L15.7929 14.6821L15.2072 15.4927ZM16.545 15.9309L17.4366 15.0105L16.7183 14.3147L15.8267 15.2351L16.545 15.9309ZM16.8481 15.107L17.9455 15.6733L18.4041 14.7847L17.3068 14.2183L16.8481 15.107ZM18.5621 15.5453L22.6085 10.5897L21.834 9.95719L17.7875 14.9128L18.5621 15.5453ZM11.3127 15.9985L15.0162 18.4767L15.5723 17.6456L11.8688 15.1674L11.3127 15.9985ZM15.2455 17.5636L13.8052 17.7048L13.9028 18.7001L15.3431 18.5588L15.2455 17.5636ZM13.5326 17.8194L12.4353 18.7401L13.078 19.5062L14.1754 18.5855L13.5326 17.8194ZM13.0918 18.7521L11.9944 17.7609L11.3242 18.503L12.4215 19.4942L13.0918 18.7521ZM12.1421 18.2619L12.4851 16.9874L11.5194 16.7276L11.1765 18.0021L12.1421 18.2619ZM12.478 16.7039L12.0665 15.4294L11.1149 15.7366L11.5264 17.0111L12.478 16.7039ZM10.9797 18.9264L12.1456 19.9884L12.819 19.2491L11.6531 18.1871L10.9797 18.9264ZM11.9831 19.6472L12.0517 20.8505L13.0501 20.7936L12.9815 19.5903L11.9831 19.6472ZM12.1974 20.4684L7.87664 24.787L8.58357 25.4943L12.9044 21.1757L12.1974 20.4684ZM8.66489 25.3876L9.83082 23.3345L8.96125 22.8407L7.79532 24.8938L8.66489 25.3876ZM9.11258 22.6757C9.03587 22.7285 8.9575 22.7671 8.91898 22.7801C8.88711 22.7909 8.93211 22.7685 9.0155 22.7775C9.06308 22.7826 9.17165 22.8034 9.27161 22.8979C9.38366 23.0038 9.41594 23.1359 9.41594 23.229H8.41594C8.41594 23.3504 8.4568 23.5037 8.58465 23.6246C8.70042 23.734 8.83203 23.7635 8.90855 23.7717C9.04981 23.7869 9.17625 23.7487 9.23868 23.7276C9.38876 23.677 9.55044 23.5883 9.67948 23.4995L9.11258 22.6757ZM9.41594 23.229C9.41594 23.2663 9.41146 23.2942 9.41037 23.301C9.40865 23.3117 9.40703 23.3189 9.40659 23.3209C9.40571 23.3248 9.40588 23.3235 9.40846 23.3144C9.41341 23.2969 9.42222 23.2682 9.43574 23.2265C9.46244 23.1442 9.5022 23.0277 9.55289 22.8829C9.65396 22.5942 9.79454 22.2042 9.9515 21.7738C10.2652 20.9135 10.6419 19.899 10.8931 19.2271L9.95646 18.8769C9.70471 19.5502 9.32699 20.5675 9.01202 21.4311C8.85464 21.8627 8.71231 22.2576 8.60906 22.5525C8.55759 22.6995 8.51483 22.8245 8.48455 22.9179C8.46959 22.964 8.45629 23.0066 8.44626 23.042C8.44136 23.0594 8.43582 23.0799 8.4311 23.1009C8.42966 23.1072 8.41594 23.1632 8.41594 23.229H9.41594ZM10.6676 19.4891L11.5592 18.9939L11.0736 18.1197L10.182 18.6149L10.6676 19.4891ZM11.4373 11.8371L10.9572 12.3328L11.6756 13.0285L12.1556 12.5328L11.4373 11.8371ZM11.6295 12.2908L11.0122 11.7951L10.386 12.5748L11.0033 13.0705L11.6295 12.2908ZM10.2038 12.1164L10.1353 12.6121L11.1258 12.7492L11.1944 12.2534L10.2038 12.1164ZM21.668 9.71436L22.6282 8.36923L21.8143 7.78825L20.8541 9.13337L21.668 9.71436ZM22.6257 8.37268L23.0372 7.80643L22.2283 7.21855L21.8168 7.7848L22.6257 8.37268ZM22.6164 10.5798L22.8907 10.226L22.1004 9.61322L21.8261 9.96706L22.6164 10.5798ZM22.6819 9.4556L21.4474 8.95988L21.0748 9.88786L22.3093 10.3836L22.6819 9.4556Z" fill="#8257E5"/>
<path d="M46.4185 22H43.7012L42.0679 19.2974C41.9459 19.0923 41.8287 18.9092 41.7164 18.748C41.6041 18.5869 41.4893 18.4502 41.3721 18.3379C41.2598 18.2207 41.1402 18.1328 41.0132 18.0742C40.8912 18.0107 40.7569 17.979 40.6104 17.979H39.9732V22H37.6075V11.4971H41.3575C43.9063 11.4971 45.1807 12.4492 45.1807 14.3535C45.1807 14.7197 45.1246 15.0591 45.0123 15.3716C44.9 15.6792 44.7413 15.9575 44.5362 16.2065C44.3311 16.4556 44.0821 16.6704 43.7891 16.8511C43.501 17.0317 43.1788 17.1733 42.8223 17.2759V17.3052C42.9786 17.354 43.1299 17.4346 43.2764 17.5469C43.4229 17.6543 43.5645 17.7812 43.7012 17.9277C43.8379 18.0742 43.9673 18.2329 44.0894 18.4038C44.2164 18.5698 44.3311 18.7334 44.4337 18.8945L46.4185 22ZM39.9732 13.2695V16.1919H40.9986C41.5064 16.1919 41.9141 16.0454 42.2217 15.7524C42.5342 15.4546 42.6905 15.0859 42.6905 14.6465C42.6905 13.7285 42.1412 13.2695 41.0425 13.2695H39.9732ZM50.5536 22.1831C49.3036 22.1831 48.3197 21.834 47.6019 21.1357C46.889 20.4326 46.5326 19.4805 46.5326 18.2793C46.5326 17.0391 46.9037 16.0698 47.6459 15.3716C48.3881 14.6685 49.3915 14.3169 50.6561 14.3169C51.9012 14.3169 52.8778 14.6685 53.5858 15.3716C54.2938 16.0698 54.6478 16.9951 54.6478 18.1475C54.6478 19.3926 54.2816 20.3765 53.5492 21.0991C52.8217 21.8218 51.8231 22.1831 50.5536 22.1831ZM50.6122 16.0894C50.0653 16.0894 49.6405 16.2773 49.3378 16.6533C49.035 17.0293 48.8837 17.5615 48.8837 18.25C48.8837 19.6904 49.4647 20.4106 50.6268 20.4106C51.7352 20.4106 52.2894 19.6709 52.2894 18.1914C52.2894 16.79 51.7304 16.0894 50.6122 16.0894ZM62.0129 21.729C61.4904 22.0317 60.736 22.1831 59.7497 22.1831C58.5974 22.1831 57.6647 21.834 56.9519 21.1357C56.239 20.4375 55.8825 19.5366 55.8825 18.4331C55.8825 17.1587 56.2634 16.1553 57.0251 15.4229C57.7917 14.6855 58.8146 14.3169 60.0939 14.3169C60.9777 14.3169 61.6174 14.4341 62.0129 14.6685V16.6313C61.5295 16.27 60.9899 16.0894 60.3942 16.0894C59.7302 16.0894 59.2028 16.2847 58.8122 16.6753C58.4265 17.061 58.2336 17.5957 58.2336 18.2793C58.2336 18.9434 58.4191 19.4658 58.7902 19.8467C59.1613 20.2227 59.6716 20.4106 60.321 20.4106C60.8972 20.4106 61.4611 20.23 62.0129 19.8687V21.729ZM71.231 22H68.4551L66.0601 18.2793H66.0308V22H63.7163V10.8965H66.0308V17.9644H66.0601L68.294 14.5H71.0405L68.3526 18.0229L71.231 22ZM78.8084 18.9092H73.9159C73.994 19.998 74.68 20.5425 75.974 20.5425C76.7992 20.5425 77.5243 20.3472 78.1493 19.9565V21.6265C77.4559 21.9976 76.555 22.1831 75.4466 22.1831C74.2357 22.1831 73.2957 21.8486 72.6268 21.1797C71.9579 20.5059 71.6234 19.5684 71.6234 18.3672C71.6234 17.1221 71.9847 16.1357 72.7074 15.4082C73.43 14.6807 74.3187 14.3169 75.3734 14.3169C76.4671 14.3169 77.3119 14.6416 77.9076 15.291C78.5081 15.9404 78.8084 16.8218 78.8084 17.9351V18.9092ZM76.6624 17.4883C76.6624 16.4141 76.2279 15.877 75.3587 15.877C74.9876 15.877 74.6654 16.0308 74.3919 16.3384C74.1234 16.646 73.9598 17.0293 73.9012 17.4883H76.6624ZM84.8991 21.9121C84.5573 22.0928 84.0421 22.1831 83.3537 22.1831C81.7228 22.1831 80.9074 21.3359 80.9074 19.6416V16.2065H79.6916V14.5H80.9074V12.8813L83.2145 12.2222V14.5H84.8991V16.2065H83.2145V19.2388C83.2145 20.02 83.5246 20.4106 84.1447 20.4106C84.3888 20.4106 84.6403 20.3398 84.8991 20.1982V21.9121ZM85.8994 21.8022V19.9272C86.2803 20.1567 86.6587 20.3276 87.0346 20.4399C87.4155 20.5522 87.7744 20.6084 88.1113 20.6084C88.5215 20.6084 88.8437 20.5522 89.0781 20.4399C89.3174 20.3276 89.437 20.1567 89.437 19.9272C89.437 19.7808 89.3833 19.6587 89.2759 19.561C89.1684 19.4634 89.0293 19.3779 88.8584 19.3047C88.6924 19.2314 88.5093 19.1655 88.3091 19.1069C88.1089 19.0483 87.916 18.9824 87.7304 18.9092C87.4326 18.7969 87.1689 18.6772 86.9394 18.5503C86.7148 18.4185 86.5244 18.2671 86.3681 18.0962C86.2168 17.9253 86.0996 17.7275 86.0166 17.5029C85.9385 17.2783 85.8994 17.0122 85.8994 16.7046C85.8994 16.2847 85.9897 15.9233 86.1704 15.6206C86.3559 15.3179 86.6001 15.0713 86.9028 14.8809C87.2104 14.6855 87.5596 14.5439 87.9502 14.4561C88.3457 14.3633 88.7558 14.3169 89.1806 14.3169C89.5127 14.3169 89.8496 14.3438 90.1914 14.3975C90.5332 14.4463 90.8701 14.5195 91.2021 14.6172V16.4043C90.9092 16.2334 90.5942 16.1064 90.2573 16.0234C89.9253 15.9355 89.5981 15.8916 89.2759 15.8916C89.1245 15.8916 88.9804 15.9062 88.8437 15.9355C88.7119 15.96 88.5947 15.999 88.4922 16.0527C88.3896 16.1016 88.3091 16.1675 88.2505 16.2505C88.1919 16.3286 88.1626 16.4189 88.1626 16.5215C88.1626 16.6582 88.2065 16.7754 88.2944 16.873C88.3823 16.9707 88.4971 17.0562 88.6387 17.1294C88.7803 17.1978 88.9365 17.2612 89.1074 17.3198C89.2832 17.3735 89.4565 17.4297 89.6274 17.4883C89.935 17.5957 90.2134 17.7129 90.4624 17.8398C90.7114 17.9668 90.9238 18.1157 91.0996 18.2866C91.2803 18.4575 91.417 18.6577 91.5097 18.8872C91.6074 19.1167 91.6562 19.3901 91.6562 19.7075C91.6562 20.1519 91.5586 20.5327 91.3633 20.8501C91.1728 21.1626 90.9165 21.4189 90.5942 21.6191C90.2768 21.8145 89.9082 21.9561 89.4883 22.0439C89.0732 22.1367 88.6411 22.1831 88.1919 22.1831C87.3667 22.1831 86.6025 22.0562 85.8994 21.8022ZM99.9148 18.9092H95.0223C95.1004 19.998 95.7864 20.5425 97.0804 20.5425C97.9056 20.5425 98.6307 20.3472 99.2557 19.9565V21.6265C98.5623 21.9976 97.6614 22.1831 96.553 22.1831C95.3421 22.1831 94.4021 21.8486 93.7332 21.1797C93.0643 20.5059 92.7298 19.5684 92.7298 18.3672C92.7298 17.1221 93.0911 16.1357 93.8138 15.4082C94.5364 14.6807 95.4251 14.3169 96.4798 14.3169C97.5735 14.3169 98.4183 14.6416 99.014 15.291C99.6145 15.9404 99.9148 16.8218 99.9148 17.9351V18.9092ZM97.7688 17.4883C97.7688 16.4141 97.3343 15.877 96.4651 15.877C96.094 15.877 95.7718 16.0308 95.4983 16.3384C95.2298 16.646 95.0662 17.0293 95.0076 17.4883H97.7688ZM107.712 22H105.522V20.9233H105.493C104.99 21.7632 104.245 22.1831 103.259 22.1831C102.531 22.1831 101.958 21.978 101.538 21.5679C101.123 21.1528 100.915 20.6011 100.915 19.9126C100.915 18.4575 101.777 17.6177 103.501 17.3931L105.537 17.1221C105.537 16.3018 105.092 15.8916 104.204 15.8916C103.31 15.8916 102.461 16.1577 101.655 16.6899V14.9468C101.977 14.7808 102.417 14.6343 102.973 14.5073C103.535 14.3804 104.045 14.3169 104.504 14.3169C106.643 14.3169 107.712 15.3838 107.712 17.5176V22ZM105.537 18.9531V18.4478L104.174 18.6235C103.422 18.7212 103.047 19.0605 103.047 19.6416C103.047 19.9053 103.137 20.1226 103.318 20.2935C103.503 20.4595 103.752 20.5425 104.065 20.5425C104.499 20.5425 104.853 20.3936 105.127 20.0957C105.4 19.793 105.537 19.4121 105.537 18.9531ZM114.257 21.9121C113.915 22.0928 113.4 22.1831 112.711 22.1831C111.081 22.1831 110.265 21.3359 110.265 19.6416V16.2065H109.049V14.5H110.265V12.8813L112.572 12.2222V14.5H114.257V16.2065H112.572V19.2388C112.572 20.02 112.882 20.4106 113.502 20.4106C113.747 20.4106 113.998 20.3398 114.257 20.1982V21.9121Z" fill="white"/>
<path d="M119 0H5C2.23858 0 0 2.23858 0 5V27C0 29.7614 2.23858 32 5 32H119C121.761 32 124 29.7614 124 27V5C124 2.23858 121.761 0 119 0Z" fill="url(#paint0_linear)"/>
<defs>
<linearGradient id="paint0_linear" x1="0" y1="0" x2="0" y2="32" gradientUnits="userSpaceOnUse">
<stop stop-color="#BBBBBB" stop-opacity="0.1"/>
<stop offset="1" stop-opacity="0.1"/>
</linearGradient>
</defs>
</svg>
